<svg width="5033" height="4519" viewBox="0 0 5033 4519" fill="none" xmlns="http://www.w3.org/2000/svg">
<path d="M2647.14 2214.65C2818.04 1750.3 2635.19 1406.85 2239.79 1135.87C2234.2 1132.03 2233.21 1124.25 2237.7 1119.1L2293.5 1056.18C2294.82 1054.75 2295.69 1053 2296.13 1051.13L2298.32 1040.94C2299.42 1036.01 2297.01 1030.96 2292.51 1028.55L2212.6 986.676C2208.55 984.484 2206.13 980.099 2206.68 975.605L2212.93 915.533C2213.26 912.902 2212.49 910.161 2210.96 907.969L2202.95 896.459C2199.45 891.306 2200.76 884.291 2205.91 880.783L2243.51 855.241C2246.8 853.049 2248.67 849.212 2248.45 845.266L2248.23 841.21C2248.01 837.263 2245.71 833.646 2242.2 831.892L2210.41 815.339C2207.01 813.585 2204.82 810.187 2204.38 806.46L2202.85 790.236C2202.41 785.632 2199.23 781.795 2194.84 780.48L2163.6 771.162C2158.34 769.627 2154.83 764.475 2155.6 758.994C2157.68 744.743 2168.2 717.448 2216.11 695.304C2217.86 694.537 2219.84 694.098 2221.7 694.208L2306 699.579C2306.88 699.579 2307.86 699.58 2308.74 699.36L2331.65 695.085C2335.16 694.427 2338.77 695.524 2341.41 697.935L2413.43 764.694C2413.43 764.694 2413.76 765.023 2413.97 765.242L2466.7 821.368C2469.66 824.547 2474.16 825.643 2478.21 824.438L2600.66 786.07C2605.37 784.536 2610.52 786.399 2613.38 790.455L2638.26 827.178C2640.67 830.796 2640.89 835.4 2638.7 839.127L2589.7 923.864C2588.16 926.604 2585.42 928.577 2582.35 929.235L2550.89 936.032C2544.75 937.347 2540.81 943.486 2542.34 949.625L2545.74 963.875C2545.96 964.972 2546.4 965.958 2546.94 966.945L2583.78 1029.1C2586.3 1033.37 2585.75 1038.86 2582.35 1042.58L2577.42 1047.84C2575.34 1050.04 2572.49 1051.35 2569.42 1051.35L2529.19 1052.12C2529.19 1052.12 2528.2 1052.12 2527.76 1052.12L2521.29 1051.35C2512.96 1050.48 2506.6 1058.59 2509.45 1066.37L2537.3 1142.45C2538.18 1144.97 2539.93 1147.05 2542.23 1148.37L2650.21 1210.19C2655.91 1213.48 2657.66 1220.94 2653.83 1226.42L2610.63 1288.02C2609.32 1289.89 2608.55 1292.19 2608.55 1294.49V1310.5C2608.55 1314.55 2610.74 1318.28 2614.25 1320.25L2776.82 1412.66C2778.46 1413.54 2780.22 1414.09 2782.08 1414.09L2853.88 1415.84C2856.29 1415.84 2858.6 1416.72 2860.46 1418.14L2932.81 1474.05C2934.89 1475.59 2937.3 1476.46 2939.94 1476.35L3066.77 1473.83C3073.23 1473.72 3078.28 1468.13 3077.73 1461.66L3071.7 1388.33C3071.37 1384.93 3072.69 1381.53 3075.21 1379.23C3085.4 1369.8 3112.59 1348.21 3125.41 1373.75L3137.8 1444.67C3138.79 1450.04 3143.39 1453.99 3148.87 1453.99H3262.22C3263.21 1453.99 3264.19 1453.88 3265.18 1453.55L3292.48 1446.21C3297.41 1444.89 3300.81 1440.4 3300.81 1435.35C3300.81 1430.53 3297.63 1426.15 3293.02 1424.61L3281.95 1420.99C3277.68 1419.57 3274.72 1415.84 3274.28 1411.46L3273.73 1405.87C3273.29 1401.04 3275.92 1396.44 3280.42 1394.47L3343.01 1366.95C3346.08 1365.64 3348.38 1363 3349.26 1359.83L3355.29 1339.33C3355.95 1337.24 3357.15 1335.38 3358.8 1333.96L3437.72 1266.1C3439.81 1264.35 3442.33 1263.36 3445.07 1263.36H3460.74C3465.24 1263.36 3469.29 1265.99 3471.05 1270.16L3476.75 1283.42C3478.28 1287.04 3481.68 1289.56 3485.63 1290.11L3494.51 1291.2C3498.56 1291.75 3502.51 1290.11 3504.92 1286.82L3517.31 1270.48C3519.39 1267.74 3522.57 1266.1 3525.97 1265.99L3539.34 1265.66C3545.26 1265.55 3550.3 1270.05 3550.85 1275.97L3554.8 1322.34C3555.24 1327.49 3559.18 1331.65 3564.23 1332.53L3599.85 1338.12C3605.33 1339 3609.39 1343.71 3609.39 1349.19V1357.96C3609.39 1360.92 3608.18 1363.66 3606.21 1365.85C3602.48 1369.8 3596.78 1376.71 3596.78 1382.3C3596.78 1387.89 3599.52 1410.8 3601.39 1425.49C3602.26 1432.29 3596.89 1438.2 3590.1 1438.1L3523.78 1437.55C3520.27 1437.55 3517.09 1439.08 3514.9 1441.82L3480.04 1485.56C3478.17 1487.97 3477.3 1490.93 3477.63 1494L3479.82 1511.43C3479.82 1511.43 3479.82 1511.87 3479.82 1512.09L3482.45 1549.58C3482.56 1551.44 3482.23 1553.2 3481.46 1554.95L3434.44 1660.63C3432.68 1664.57 3428.73 1667.2 3424.46 1667.31L3410.54 1667.64C3405.28 1667.75 3400.78 1671.59 3399.79 1676.74L3380.61 1777.48C3379.73 1782.19 3375.9 1785.81 3371.07 1786.47L3357.04 1788.44C3350.25 1789.43 3344.22 1784.17 3344.22 1777.26C3344.33 1750.73 3343.56 1692.42 3335.01 1688.03C3323.83 1682.44 3308.37 1692.96 3301.46 1719.49C3294.56 1746.02 3239.2 1730.02 3256.63 1674.66C3274.06 1619.3 3292.37 1650.87 3314.73 1607.46C3337.09 1564.05 3263.65 1600.44 3254.55 1588.6C3245.45 1576.77 3225.17 1566.24 3211.14 1572.49C3197.11 1578.74 3184.5 1585.75 3181.1 1571.07C3178.58 1560.54 3177.92 1537.96 3177.7 1525.9C3177.7 1521.08 3174.52 1516.91 3169.92 1515.38L3129.8 1502.33C3128.59 1501.89 3127.28 1501.78 3125.96 1501.78L3108.97 1502.33C3105.9 1502.33 3102.94 1503.76 3100.86 1506.17L3096.58 1511.1C3094.72 1513.29 3093.73 1516.04 3093.73 1518.89L3093.95 1526.67C3094.17 1532.26 3098.45 1536.86 3104.04 1537.52C3113.36 1538.62 3126.4 1541.14 3128.59 1547.28C3131.99 1556.7 3141.09 1568 3109.63 1587.51C3107 1589.15 3105.13 1591.67 3104.37 1594.63L3101.08 1608.88C3100.31 1612.39 3101.19 1616.12 3103.6 1618.86L3128.37 1646.92C3130.24 1649.01 3131.22 1651.75 3131.22 1654.49L3130.68 1706.12C3130.68 1710.83 3133.53 1715 3137.8 1716.75L3139.12 1717.3C3143.61 1719.05 3146.46 1723.44 3146.24 1728.26L3142.62 1804.23C3142.51 1807.74 3140.76 1810.92 3137.91 1812.89L3116.21 1828.24C3114.56 1829.44 3112.59 1830.1 3110.51 1830.32L3069.95 1833.39C3068.3 1833.5 3066.66 1834.05 3065.23 1834.81L3041.99 1847.97C3038.7 1849.83 3036.51 1853.34 3036.29 1857.18L3033.99 1900.59C3033.99 1902.56 3032.89 1904.2 3032.24 1906.07C3027.08 1920.1 2990.25 1960 2943.66 1974.36C2941.36 1975.02 2944.98 1973.59 2937.52 1977.54C2906.28 1994.97 2802.25 2108.65 2787.12 2130.68C2785.15 2132.65 2782.52 2133.86 2779.67 2134.08L2764.54 2134.85C2760.6 2135.06 2757.09 2137.37 2755.22 2140.87L2728.92 2190.75C2727.16 2194.15 2723.76 2196.34 2719.93 2196.67L2683.97 2199.85C2680.46 2200.18 2677.39 2202.04 2675.53 2204.89L2666.43 2218.92C2664.35 2222.1 2660.84 2224.08 2657 2224.08H2649.11L2646.59 2214.32L2647.14 2214.65Z" fill="#11CF6E"/>
<path d="M2573.48 1585C2445.33 1377.49 2282.65 1146.52 1666.14 1038C1660.88 1037.12 1655.73 1040.19 1654.3 1045.34C1635.78 1111 1525.61 1522.96 1607.93 1754.26C1697.5 2006.17 1869.6 2211.82 2079.52 2309.82C2274.43 2400.8 2337.79 2523.14 2330.23 2598.34C2329.46 2605.79 2337.13 2611.38 2344.15 2608.86L2471.2 2563.81C2474.82 2562.49 2477.34 2559.42 2477.89 2555.7C2483.7 2517.66 2516.69 2310.91 2549.69 2266.41C2586.08 2217.41 2702.17 1793.39 2573.48 1584.89V1585ZM2414.2 2436.21C2411.67 2444.32 2400.27 2442.46 2400.27 2434.02C2401.7 2047.93 2182.57 1672.81 1853.7 1332.22C1851.73 1330.25 1851.07 1327.18 1852.06 1324.55L1853.81 1319.5C1855.46 1315.01 1860.72 1313.25 1864.56 1315.99C2297.78 1620.3 2530.18 2059.99 2414.09 2436.32L2414.2 2436.21Z" fill="#11CF6E"/>
<path d="M4269.2 1638.59C4196.63 1609.65 4137.98 1605.93 4057.74 1594.75C4045.46 1592.99 4035.6 1583.78 4033.08 1571.62L3986.05 1336.7C3983.75 1324.97 3987.58 1312.91 3996.35 1304.69L4170.32 1143.33C4180.41 1134.01 4182.82 1118.99 4176.24 1106.93L4008.3 800.653C4001.83 788.924 3988.02 783.443 3975.31 787.718L3757.71 859.739C3745.54 863.795 3732.28 860.396 3723.4 851.188L3529.04 648.718C3521.04 640.278 3518.62 628 3523.12 617.257L3615.86 395.166C3620.57 383.875 3616.41 370.83 3606.1 364.252L3292.37 165.729C3281.3 158.713 3266.83 160.906 3258.28 170.662L3097.13 355.702C3089.57 364.362 3077.62 367.98 3066.55 365.02L2801.49 293.437C2788.66 289.929 2778.9 279.625 2776.16 266.69L2725.19 26.1817C2722.67 14.4523 2712.36 6.12109 2700.41 6.12109H2325.4C2307.1 6.12109 2291.53 19.4948 2288.79 37.5823L2253.71 268.005C2251.85 280.173 2243.19 290.149 2231.35 293.657L1973.85 369.733C1961.79 373.351 1948.74 369.405 1940.52 359.868L1782.89 175.156C1775 165.948 1761.62 163.865 1751.32 170.224L1418.84 377.407C1407 384.861 1402.61 399.989 1408.75 412.595L1509.71 619.121C1514.32 628.658 1512.67 639.949 1505.55 647.842L1329.39 840.226C1321.17 849.215 1308.34 852.613 1296.72 848.886L1069.48 775.769C1057.64 771.932 1044.7 777.084 1038.78 788.156L862.621 1114.17C855.058 1128.2 858.785 1145.74 871.501 1155.5L1050.73 1293.07C1059.94 1300.2 1064.43 1311.92 1062.13 1323.33L1014.45 1561.97C1011.71 1575.45 1000.85 1585.87 987.151 1587.84L787.75 1617.11C762.209 1620.84 743.464 1643.09 744.012 1668.85L751.904 2035.75C752.233 2050 762.538 2062.06 776.569 2064.47L990.549 2101.96C1001.29 2103.83 1010.06 2111.61 1013.24 2122.02L1092.61 2385.11C1095.68 2395.2 1092.61 2406.27 1084.71 2413.29L927.079 2555.57C914.582 2566.86 912.28 2585.5 921.488 2599.53L1137 2924.45C1143.25 2933.87 1155.53 2937.49 1165.83 2932.78L1360.85 2844.75C1372.14 2839.71 1385.29 2841.46 1394.72 2849.47L1597.96 3021.57C1605.63 3028.04 1608.59 3038.56 1605.41 3048.1L1534.27 3263.07C1528.79 3279.62 1536.13 3297.6 1551.59 3305.6L1867.63 3470.03C1881 3476.94 1897.44 3473.65 1906.98 3461.92L2050.47 3285.65C2057.71 3276.77 2069.44 3272.93 2080.51 3275.89L2286.6 3329.83C2297.78 3332.79 2306.11 3341.88 2307.97 3353.28L2342.17 3563.21C2344.37 3576.69 2355.88 3586.89 2369.47 3587.21C2489.94 3590.72 2610.09 3587 2729.79 3574.06C2743.5 3572.64 2754.68 3562.44 2757.64 3549.07L2800.83 3354.71C2803.35 3343.53 2811.9 3334.65 2822.97 3331.91L3030.04 3279.4C3040.68 3276.66 3051.86 3280.39 3058.88 3288.94L3198.97 3460.16C3208.73 3472 3225.17 3476.06 3239.2 3469.81C3354.08 3418.95 3465.24 3363.04 3559.73 3284.44C3570.37 3275.56 3573.98 3260.76 3568.94 3247.83L3491.55 3048.76C3488.15 3040.21 3490.89 3030.34 3498.13 3024.64L3521.37 3006.22C3527.5 3001.4 3534.96 2998.66 3542.85 2998.33C3642.93 2993.18 3729.97 2959.85 3804.74 2900.11C3812.19 2894.19 3821.73 2891.45 3831.04 2892.99L3871.17 2899.67C3885.64 2902.08 3900.43 2896.38 3909.42 2884.87C3994.05 2777.01 4067.28 2673.74 4122.75 2577.72C4128.01 2568.62 4126.25 2557 4118.58 2549.76L3986.05 2424.03L3668.7 2621.35C3649.73 2633.08 3627.37 2638.45 3605.12 2636.03C3447.59 2619.37 3362.74 2475.22 3409.44 2348.61C3414.49 2325.92 3427.53 2305.75 3446.28 2292.04L3748.06 2071.71C3752.23 2068.75 3751.35 2062.28 3746.64 2060.31C3464.8 1944.99 3204.78 1990.48 3105.35 2162.8C3105.35 2162.8 3051.2 2269.13 3041.88 2274.72C3041.88 2274.72 3002.75 2358.69 2939.28 2418.44C2875.81 2478.18 1939.21 2847.6 1879.46 2840.15C1819.72 2832.69 1474.96 2715.95 1274.91 2025.67C1084.6 1314.99 1815.12 271.075 2895.43 592.921C3812.96 901.285 3799.36 1743.83 3784.57 1930.3C3782.81 1952.88 3793.88 1974.25 3812.74 1986.86C3892.21 2040.03 3957.55 2116.98 4008.41 2218.82C4010.71 2223.31 4017.4 2222.33 4018.06 2217.28L4029.35 2133.31C4031.32 2118.84 4042.28 2107.22 4056.64 2104.59L4261.42 2066.34C4279.06 2063.05 4292 2047.59 4292 2029.61V1672.69C4292 1657.78 4282.9 1644.3 4269.09 1638.81L4269.2 1638.59ZM3151.72 2808.36C3249.62 2797.07 3294.89 2814.39 3315.83 2831.27C3321.97 2836.2 3319.88 2849.14 3312.87 2850.01C3308.7 2850.56 3304.32 2852.32 3300.04 2856.04C3284.69 2869.75 2955.83 3156.62 2602.96 3150.27C2596.71 3150.16 2594.52 3138.1 2600.11 3133.82C2682.99 3069.15 3003.63 2825.35 3151.72 2808.36ZM3039.36 2586.16C3048.02 2584.62 3056.57 2585.72 3064.58 2589.77L3078.83 2597.12C3117.74 2608.74 2326.94 3082.52 2127.1 3073.53C2127.1 3073.53 2108.57 3079.23 2107.15 3069.59C2105.06 3055.77 2898.06 2610.82 3039.25 2586.16H3039.36Z" fill="#223030" stroke="#03B9E9" stroke-width="10.9621" stroke-miterlimit="10"/>
<path d="M247.453 4263.24C247.453 4256.73 246.495 4250.88 244.579 4245.71C242.663 4240.34 239.118 4235.36 233.945 4230.76C228.772 4226.17 221.299 4221.57 211.528 4216.97C201.947 4212.18 189.302 4207.2 173.591 4202.02C155.197 4195.89 137.474 4189 120.421 4181.33C103.369 4173.48 88.1365 4164.37 74.7244 4154.03C61.3123 4143.49 50.6785 4131.23 42.8228 4117.24C34.9672 4103.06 31.0394 4086.58 31.0394 4067.81C31.0394 4049.8 35.063 4033.61 43.1102 4019.24C51.1575 4004.67 62.3661 3992.32 76.7362 3982.16C91.2979 3971.82 108.35 3963.96 127.894 3958.59C147.437 3953.04 168.801 3950.26 191.984 3950.26C222.64 3950.26 249.656 3955.62 273.031 3966.35C296.598 3976.89 314.992 3991.93 328.213 4011.48C341.625 4030.83 348.331 4053.72 348.331 4080.17H248.028C248.028 4069.63 245.824 4060.33 241.417 4052.29C237.202 4044.24 230.783 4037.92 222.161 4033.32C213.539 4028.72 202.714 4026.42 189.685 4026.42C177.039 4026.42 166.406 4028.34 157.783 4032.17C149.161 4036 142.647 4041.17 138.24 4047.69C133.833 4054.01 131.63 4061.01 131.63 4068.67C131.63 4074.99 133.354 4080.74 136.803 4085.91C140.444 4090.9 145.521 4095.59 152.035 4100C158.741 4104.4 166.789 4108.62 176.177 4112.64C185.757 4116.67 196.487 4120.59 208.366 4124.43C230.592 4131.51 250.327 4139.47 267.571 4148.28C285.007 4156.9 299.664 4166.77 311.543 4177.88C323.614 4188.8 332.715 4201.26 338.846 4215.24C345.169 4229.23 348.331 4245.04 348.331 4262.67C348.331 4281.44 344.69 4298.11 337.409 4312.67C330.129 4327.24 319.686 4339.59 306.083 4349.75C292.479 4359.71 276.193 4367.28 257.224 4372.45C238.256 4377.63 217.084 4380.21 193.709 4380.21C172.249 4380.21 151.077 4377.53 130.193 4372.17C109.5 4366.61 90.7231 4358.18 73.8622 4346.87C57.0013 4335.38 43.4934 4320.72 33.3386 4302.9C23.3753 4284.89 18.3937 4263.53 18.3937 4238.81H119.559C119.559 4251.07 121.188 4261.42 124.445 4269.85C127.702 4278.28 132.492 4285.08 138.815 4290.26C145.138 4295.24 152.898 4298.88 162.094 4301.18C171.291 4303.29 181.829 4304.34 193.709 4304.34C206.546 4304.34 216.892 4302.52 224.748 4298.88C232.604 4295.05 238.352 4290.06 241.992 4283.93C245.633 4277.61 247.453 4270.71 247.453 4263.24ZM493.468 4123.28V4494.02H396.614V4063.5H486.858L493.468 4123.28ZM684.303 4215.24V4221.28C684.303 4243.89 681.716 4264.87 676.543 4284.22C671.37 4303.57 663.706 4320.43 653.551 4334.8C643.396 4349.17 630.751 4360.38 615.614 4368.43C600.669 4376.29 583.329 4380.21 563.594 4380.21C545.009 4380.21 529.01 4376.09 515.598 4367.85C502.186 4359.62 490.978 4348.22 481.972 4333.65C472.967 4319.09 465.686 4302.42 460.13 4283.65C454.573 4264.87 450.167 4245.04 446.909 4224.15V4216.39C450.167 4193.98 454.573 4173.19 460.13 4154.03C465.686 4134.68 472.967 4117.82 481.972 4103.45C490.978 4089.08 502.091 4077.87 515.311 4069.82C528.723 4061.77 544.722 4057.75 563.307 4057.75C583.042 4057.75 600.382 4061.48 615.327 4068.96C630.463 4076.43 643.109 4087.16 653.264 4101.15C663.61 4114.94 671.37 4131.51 676.543 4150.87C681.716 4170.22 684.303 4191.68 684.303 4215.24ZM587.449 4221.28V4215.24C587.449 4203.17 586.587 4192.16 584.862 4182.19C583.138 4172.04 580.36 4163.22 576.528 4155.75C572.887 4148.28 568.001 4142.53 561.87 4138.51C555.739 4134.48 548.171 4132.47 539.165 4132.47C528.819 4132.47 520.101 4134.1 513.012 4137.36C506.114 4140.42 500.558 4145.21 496.342 4151.73C492.319 4158.05 489.445 4166 487.72 4175.58C486.188 4184.97 485.517 4195.99 485.709 4208.63V4232.2C485.325 4246.76 486.762 4259.6 490.02 4270.71C493.277 4281.63 498.929 4290.16 506.976 4296.29C515.024 4302.42 525.945 4305.49 539.74 4305.49C548.937 4305.49 556.601 4303.38 562.732 4299.17C568.863 4294.76 573.749 4288.72 577.39 4281.06C581.03 4273.2 583.617 4264.2 585.15 4254.04C586.682 4243.89 587.449 4232.97 587.449 4221.28ZM888.933 4296.29V4168.11C888.933 4159.3 887.688 4151.73 885.197 4145.41C882.706 4139.08 878.778 4134.2 873.413 4130.75C868.049 4127.11 860.864 4125.29 851.858 4125.29C844.577 4125.29 838.35 4126.53 833.177 4129.02C828.004 4131.51 824.076 4135.25 821.394 4140.23C818.711 4145.21 817.37 4151.54 817.37 4159.2H720.516C720.516 4144.83 723.677 4131.51 730 4119.25C736.514 4106.8 745.711 4095.97 757.591 4086.78C769.661 4077.58 784.031 4070.49 800.701 4065.51C817.562 4060.33 836.339 4057.75 857.031 4057.75C881.748 4057.75 903.782 4061.87 923.134 4070.11C942.677 4078.35 958.101 4090.7 969.405 4107.18C980.71 4123.47 986.362 4143.97 986.362 4168.69V4296C986.362 4316.31 987.512 4331.74 989.811 4342.28C992.11 4352.62 995.367 4361.72 999.583 4369.58V4374.46H902.441C897.843 4364.88 894.394 4353.2 892.094 4339.4C889.987 4325.41 888.933 4311.04 888.933 4296.29ZM900.717 4184.49L901.291 4236.22H858.468C849.463 4236.22 841.799 4237.47 835.476 4239.96C829.345 4242.45 824.364 4245.9 820.531 4250.31C816.891 4254.52 814.209 4259.31 812.484 4264.68C810.951 4270.04 810.185 4275.69 810.185 4281.63C810.185 4287.38 811.526 4292.56 814.209 4297.15C817.083 4301.56 820.915 4305.01 825.705 4307.5C830.495 4309.99 835.86 4311.24 841.799 4311.24C852.529 4311.24 861.63 4309.22 869.102 4305.2C876.766 4300.99 882.61 4295.91 886.634 4289.97C890.657 4284.03 892.669 4278.47 892.669 4273.3L913.937 4312.96C910.105 4320.62 905.698 4328.38 900.717 4336.24C895.926 4344.1 889.891 4351.38 882.61 4358.08C875.521 4364.6 866.803 4369.96 856.457 4374.18C846.11 4378.2 833.56 4380.21 818.807 4380.21C799.647 4380.21 782.02 4376.29 765.925 4368.43C750.022 4360.57 737.281 4349.65 727.701 4335.67C718.121 4321.49 713.331 4305.2 713.331 4286.81C713.331 4270.71 716.205 4256.34 721.953 4243.7C727.892 4231.05 736.802 4220.32 748.681 4211.51C760.56 4202.69 775.697 4195.99 794.091 4191.39C812.484 4186.79 834.135 4184.49 859.043 4184.49H900.717ZM1137.82 4140.52V4374.46H1040.97V4063.5H1131.5L1137.82 4140.52ZM1229.79 4061.2L1228.07 4151.15C1224.23 4150.77 1219.06 4150.29 1212.55 4149.72C1206.03 4149.14 1200.57 4148.85 1196.17 4148.85C1184.86 4148.85 1175.09 4150.2 1166.85 4152.88C1158.8 4155.37 1152.1 4159.2 1146.73 4164.37C1141.56 4169.36 1137.73 4175.68 1135.24 4183.34C1132.94 4191.01 1131.88 4199.92 1132.07 4210.07L1114.54 4198.58C1114.54 4177.69 1116.56 4158.72 1120.58 4141.67C1124.79 4124.43 1130.73 4109.58 1138.4 4097.12C1146.06 4084.48 1155.35 4074.8 1166.28 4068.09C1177.2 4061.2 1189.46 4057.75 1203.06 4057.75C1207.85 4057.75 1212.55 4058.04 1217.15 4058.61C1221.94 4059.19 1226.15 4060.05 1229.79 4061.2ZM1407.98 4380.21C1382.69 4380.21 1360.08 4376.29 1340.15 4368.43C1320.23 4360.38 1303.37 4349.37 1289.57 4335.38C1275.97 4321.39 1265.52 4305.3 1258.24 4287.09C1251.15 4268.89 1247.61 4249.64 1247.61 4229.33V4218.41C1247.61 4195.61 1250.77 4174.53 1257.09 4155.18C1263.42 4135.63 1272.81 4118.58 1285.26 4104.02C1297.71 4089.46 1313.33 4078.15 1332.11 4070.11C1350.88 4061.87 1372.73 4057.75 1397.63 4057.75C1419.67 4057.75 1439.4 4061.29 1456.84 4068.38C1474.27 4075.47 1489.03 4085.63 1501.1 4098.85C1513.36 4112.07 1522.65 4128.07 1528.98 4146.84C1535.49 4165.62 1538.75 4186.7 1538.75 4210.07V4249.45H1284.68V4188.8H1444.19V4181.33C1444.38 4170.98 1442.56 4162.17 1438.73 4154.89C1435.09 4147.61 1429.73 4142.05 1422.64 4138.22C1415.55 4134.39 1406.93 4132.47 1396.77 4132.47C1386.23 4132.47 1377.52 4134.77 1370.62 4139.37C1363.91 4143.97 1358.64 4150.29 1354.81 4158.34C1351.17 4166.19 1348.58 4175.3 1347.05 4185.64C1345.52 4195.99 1344.75 4206.91 1344.75 4218.41V4229.33C1344.75 4240.82 1346.28 4251.27 1349.35 4260.65C1352.61 4270.04 1357.21 4278.09 1363.15 4284.8C1369.28 4291.31 1376.56 4296.39 1384.99 4300.03C1393.61 4303.67 1403.38 4305.49 1414.3 4305.49C1427.52 4305.49 1440.55 4303 1453.39 4298.02C1466.23 4293.03 1477.24 4284.8 1486.44 4273.3L1530.41 4325.61C1524.09 4334.61 1515.09 4343.33 1503.4 4351.76C1491.9 4360.19 1478.11 4367.09 1462.01 4372.45C1445.92 4377.63 1427.91 4380.21 1407.98 4380.21ZM1896.28 4232.49H1792.24V4154.6H1896.28C1910.45 4154.6 1921.95 4152.21 1930.76 4147.42C1939.58 4142.63 1946 4136.02 1950.02 4127.59C1954.23 4118.96 1956.34 4109.29 1956.34 4098.56C1956.34 4087.06 1954.23 4076.43 1950.02 4066.66C1946 4056.89 1939.58 4049.03 1930.76 4043.09C1921.95 4036.96 1910.45 4033.89 1896.28 4033.89H1830.17V4374.46H1729.3V3956.01H1896.28C1929.81 3956.01 1958.64 3962.14 1982.78 3974.4C2007.12 3986.66 2025.8 4003.53 2038.83 4024.98C2051.86 4046.25 2058.37 4070.59 2058.37 4097.98C2058.37 4125 2051.86 4148.57 2038.83 4168.69C2025.8 4188.8 2007.12 4204.51 1982.78 4215.82C1958.64 4226.93 1929.81 4232.49 1896.28 4232.49ZM2266.16 4296.29V4168.11C2266.16 4159.3 2264.92 4151.73 2262.42 4145.41C2259.93 4139.08 2256.01 4134.2 2250.64 4130.75C2245.28 4127.11 2238.09 4125.29 2229.09 4125.29C2221.81 4125.29 2215.58 4126.53 2210.41 4129.02C2205.23 4131.51 2201.3 4135.25 2198.62 4140.23C2195.94 4145.21 2194.6 4151.54 2194.6 4159.2H2097.74C2097.74 4144.83 2100.91 4131.51 2107.23 4119.25C2113.74 4106.8 2122.94 4095.97 2134.82 4086.78C2146.89 4077.58 2161.26 4070.49 2177.93 4065.51C2194.79 4060.33 2213.57 4057.75 2234.26 4057.75C2258.98 4057.75 2281.01 4061.87 2300.36 4070.11C2319.91 4078.35 2335.33 4090.7 2346.63 4107.18C2357.94 4123.47 2363.59 4143.97 2363.59 4168.69V4296C2363.59 4316.31 2364.74 4331.74 2367.04 4342.28C2369.34 4352.62 2372.6 4361.72 2376.81 4369.58V4374.46H2279.67C2275.07 4364.88 2271.62 4353.2 2269.32 4339.4C2267.22 4325.41 2266.16 4311.04 2266.16 4296.29ZM2277.94 4184.49L2278.52 4236.22H2235.7C2226.69 4236.22 2219.03 4237.47 2212.7 4239.96C2206.57 4242.45 2201.59 4245.9 2197.76 4250.31C2194.12 4254.52 2191.44 4259.31 2189.71 4264.68C2188.18 4270.04 2187.41 4275.69 2187.41 4281.63C2187.41 4287.38 2188.75 4292.56 2191.44 4297.15C2194.31 4301.56 2198.14 4305.01 2202.93 4307.5C2207.72 4309.99 2213.09 4311.24 2219.03 4311.24C2229.76 4311.24 2238.86 4309.22 2246.33 4305.2C2253.99 4300.99 2259.84 4295.91 2263.86 4289.97C2267.89 4284.03 2269.9 4278.47 2269.9 4273.3L2291.17 4312.96C2287.33 4320.62 2282.93 4328.38 2277.94 4336.24C2273.15 4344.1 2267.12 4351.38 2259.84 4358.08C2252.75 4364.6 2244.03 4369.96 2233.68 4374.18C2223.34 4378.2 2210.79 4380.21 2196.04 4380.21C2176.88 4380.21 2159.25 4376.29 2143.15 4368.43C2127.25 4360.57 2114.51 4349.65 2104.93 4335.67C2095.35 4321.49 2090.56 4305.2 2090.56 4286.81C2090.56 4270.71 2093.43 4256.34 2099.18 4243.7C2105.12 4231.05 2114.03 4220.32 2125.91 4211.51C2137.79 4202.69 2152.92 4195.99 2171.32 4191.39C2189.71 4186.79 2211.36 4184.49 2236.27 4184.49H2277.94ZM2515.05 4140.52V4374.46H2418.2V4063.5H2508.73L2515.05 4140.52ZM2607.02 4061.2L2605.3 4151.15C2601.46 4150.77 2596.29 4150.29 2589.78 4149.72C2583.26 4149.14 2577.8 4148.85 2573.39 4148.85C2562.09 4148.85 2552.32 4150.2 2544.08 4152.88C2536.03 4155.37 2529.33 4159.2 2523.96 4164.37C2518.79 4169.36 2514.96 4175.68 2512.46 4183.34C2510.17 4191.01 2509.11 4199.92 2509.3 4210.07L2491.77 4198.58C2491.77 4177.69 2493.78 4158.72 2497.81 4141.67C2502.02 4124.43 2507.96 4109.58 2515.63 4097.12C2523.29 4084.48 2532.58 4074.8 2543.5 4068.09C2554.42 4061.2 2566.69 4057.75 2580.29 4057.75C2585.08 4057.75 2589.78 4058.04 2594.37 4058.61C2599.16 4059.19 2603.38 4060.05 2607.02 4061.2ZM2818.55 4063.5V4130.75H2631.16V4063.5H2818.55ZM2670.54 3986.19H2767.39V4273.01C2767.39 4281.25 2768.35 4287.67 2770.26 4292.27C2772.18 4296.67 2775.44 4299.84 2780.04 4301.75C2784.83 4303.48 2791.15 4304.34 2799 4304.34C2804.56 4304.34 2809.16 4304.24 2812.8 4304.05C2816.44 4303.67 2819.89 4303.19 2823.15 4302.61V4371.88C2814.91 4374.56 2806.28 4376.57 2797.28 4377.91C2788.27 4379.45 2778.69 4380.21 2768.54 4380.21C2747.85 4380.21 2730.12 4376.96 2715.37 4370.44C2700.81 4363.93 2689.7 4353.68 2682.03 4339.69C2674.37 4325.7 2670.54 4307.5 2670.54 4285.08V3986.19ZM3020.02 4287.09C3020.02 4281.73 3018.2 4277.13 3014.56 4273.3C3011.11 4269.28 3004.98 4265.64 2996.16 4262.38C2987.35 4258.93 2974.99 4255.48 2959.09 4252.03C2943.95 4248.77 2929.68 4244.46 2916.26 4239.1C2903.04 4233.73 2891.45 4227.22 2881.49 4219.56C2871.52 4211.89 2863.67 4202.79 2857.92 4192.25C2852.36 4181.71 2849.59 4169.64 2849.59 4156.04C2849.59 4142.82 2852.36 4130.37 2857.92 4118.68C2863.67 4106.8 2872 4096.36 2882.93 4087.35C2894.04 4078.15 2907.55 4070.97 2923.45 4065.8C2939.35 4060.43 2957.46 4057.75 2977.77 4057.75C3005.74 4057.75 3029.88 4062.06 3050.19 4070.68C3070.5 4079.11 3086.12 4090.99 3097.04 4106.32C3108.15 4121.46 3113.71 4138.99 3113.71 4158.91H3016.85C3016.85 4151.06 3015.51 4144.35 3012.83 4138.8C3010.34 4133.24 3006.22 4129.02 3000.47 4126.15C2994.72 4123.08 2987.06 4121.55 2977.48 4121.55C2970.77 4121.55 2964.64 4122.8 2959.09 4125.29C2953.72 4127.78 2949.41 4131.23 2946.15 4135.63C2942.9 4140.04 2941.27 4145.21 2941.27 4151.15C2941.27 4155.37 2942.23 4159.2 2944.14 4162.65C2946.25 4165.91 2949.41 4168.97 2953.63 4171.85C2957.84 4174.53 2963.21 4177.02 2969.72 4179.32C2976.23 4181.43 2984.09 4183.34 2993.29 4185.07C3014.17 4188.9 3033.72 4194.36 3051.92 4201.45C3070.12 4208.54 3084.87 4218.6 3096.18 4231.63C3107.67 4244.66 3113.42 4262.19 3113.42 4284.22C3113.42 4298.02 3110.26 4310.76 3103.94 4322.45C3097.61 4333.94 3088.51 4344.1 3076.63 4352.91C3064.75 4361.53 3050.48 4368.24 3033.81 4373.03C3017.14 4377.82 2998.36 4380.21 2977.48 4380.21C2947.78 4380.21 2922.68 4374.94 2902.18 4364.41C2881.68 4353.68 2866.16 4340.26 2855.62 4324.17C2845.28 4307.88 2840.1 4291.41 2840.1 4274.74H2930.35C2930.73 4284.32 2933.03 4292.17 2937.24 4298.3C2941.65 4304.43 2947.49 4308.94 2954.78 4311.81C2962.06 4314.69 2970.49 4316.12 2980.07 4316.12C2988.88 4316.12 2996.16 4314.88 3001.91 4312.39C3007.85 4309.9 3012.35 4306.54 3015.42 4302.33C3018.48 4297.92 3020.02 4292.84 3020.02 4287.09ZM3480.72 4196.56H3372.94L3372.37 4130.46H3459.74C3475.45 4130.46 3488 4128.74 3497.39 4125.29C3506.78 4121.65 3513.58 4116.38 3517.8 4109.48C3522.2 4102.58 3524.41 4093.96 3524.41 4083.61C3524.41 4071.74 3522.2 4062.16 3517.8 4054.87C3513.39 4047.59 3506.39 4042.32 3496.81 4039.07C3487.43 4035.62 3475.26 4033.89 3460.31 4033.89H3410.88V4374.46H3310V3956.01H3460.31C3486.18 3956.01 3509.27 3958.4 3529.58 3963.19C3549.89 3967.79 3567.13 3974.88 3581.31 3984.46C3595.68 3994.04 3606.6 4006.11 3614.07 4020.67C3621.55 4035.04 3625.28 4052 3625.28 4071.54C3625.28 4088.6 3621.64 4104.59 3614.36 4119.54C3607.08 4134.48 3594.91 4146.65 3577.86 4156.04C3561 4165.24 3537.91 4170.03 3508.6 4170.41L3480.72 4196.56ZM3476.7 4374.46H3348.52L3383 4296.87H3476.7C3490.49 4296.87 3501.51 4294.76 3509.75 4290.54C3518.18 4286.14 3524.21 4280.39 3527.85 4273.3C3531.69 4266.02 3533.6 4257.97 3533.6 4249.16C3533.6 4238.43 3531.78 4229.14 3528.14 4221.28C3524.69 4213.42 3519.14 4207.39 3511.47 4203.17C3503.81 4198.77 3493.56 4196.56 3480.72 4196.56H3395.94L3396.51 4130.46H3497.96L3521.53 4156.9C3549.51 4155.75 3571.64 4159.68 3587.92 4168.69C3604.4 4177.69 3616.18 4189.57 3623.27 4204.32C3630.36 4219.08 3633.91 4234.5 3633.91 4250.59C3633.91 4277.99 3627.97 4300.89 3616.09 4319.28C3604.4 4337.68 3586.87 4351.47 3563.49 4360.67C3540.12 4369.87 3511.18 4374.46 3476.7 4374.46ZM3780.19 3933.02V4374.46H3683.34V3933.02H3780.19ZM3768.7 4208.35L3745.99 4208.92C3745.99 4187.08 3748.67 4166.96 3754.04 4148.57C3759.4 4130.17 3767.07 4114.17 3777.03 4100.57C3786.99 4086.97 3798.97 4076.43 3812.96 4068.96C3826.94 4061.48 3842.46 4057.75 3859.52 4057.75C3874.84 4057.75 3888.83 4059.95 3901.48 4064.36C3914.31 4068.77 3925.33 4075.85 3934.53 4085.63C3943.92 4095.4 3951.1 4108.14 3956.08 4123.85C3961.26 4139.56 3963.84 4158.72 3963.84 4181.33V4374.46H3866.41V4180.76C3866.41 4168.11 3864.59 4158.34 3860.95 4151.44C3857.5 4144.35 3852.52 4139.47 3846.01 4136.78C3839.49 4133.91 3831.54 4132.47 3822.15 4132.47C3810.85 4132.47 3801.65 4134.39 3794.56 4138.22C3787.47 4142.05 3782.01 4147.42 3778.18 4154.32C3774.54 4161.02 3772.05 4168.97 3770.71 4178.17C3769.37 4187.37 3768.7 4197.43 3768.7 4208.35ZM4179.11 4296.29V4168.11C4179.11 4159.3 4177.86 4151.73 4175.37 4145.41C4172.88 4139.08 4168.95 4134.2 4163.59 4130.75C4158.22 4127.11 4151.04 4125.29 4142.03 4125.29C4134.75 4125.29 4128.52 4126.53 4123.35 4129.02C4118.18 4131.51 4114.25 4135.25 4111.57 4140.23C4108.88 4145.21 4107.54 4151.54 4107.54 4159.2H4010.69C4010.69 4144.83 4013.85 4131.51 4020.17 4119.25C4026.69 4106.8 4035.88 4095.97 4047.76 4086.78C4059.83 4077.58 4074.2 4070.49 4090.87 4065.51C4107.73 4060.33 4126.51 4057.75 4147.2 4057.75C4171.92 4057.75 4193.96 4061.87 4213.31 4070.11C4232.85 4078.35 4248.27 4090.7 4259.58 4107.18C4270.88 4123.47 4276.54 4143.97 4276.54 4168.69V4296C4276.54 4316.31 4277.68 4331.74 4279.98 4342.28C4282.28 4352.62 4285.54 4361.72 4289.76 4369.58V4374.46H4192.61C4188.02 4364.88 4184.57 4353.2 4182.27 4339.4C4180.16 4325.41 4179.11 4311.04 4179.11 4296.29ZM4190.89 4184.49L4191.46 4236.22H4148.64C4139.64 4236.22 4131.97 4237.47 4125.65 4239.96C4119.52 4242.45 4114.54 4245.9 4110.7 4250.31C4107.06 4254.52 4104.38 4259.31 4102.66 4264.68C4101.12 4270.04 4100.36 4275.69 4100.36 4281.63C4100.36 4287.38 4101.7 4292.56 4104.38 4297.15C4107.26 4301.56 4111.09 4305.01 4115.88 4307.5C4120.67 4309.99 4126.03 4311.24 4131.97 4311.24C4142.7 4311.24 4151.8 4309.22 4159.28 4305.2C4166.94 4300.99 4172.78 4295.91 4176.81 4289.97C4180.83 4284.03 4182.84 4278.47 4182.84 4273.3L4204.11 4312.96C4200.28 4320.62 4195.87 4328.38 4190.89 4336.24C4186.1 4344.1 4180.06 4351.38 4172.78 4358.08C4165.69 4364.6 4156.98 4369.96 4146.63 4374.18C4136.28 4378.2 4123.73 4380.21 4108.98 4380.21C4089.82 4380.21 4072.19 4376.29 4056.1 4368.43C4040.2 4360.57 4027.45 4349.65 4017.87 4335.67C4008.29 4321.49 4003.5 4305.2 4003.5 4286.81C4003.5 4270.71 4006.38 4256.34 4012.13 4243.7C4018.07 4231.05 4026.97 4220.32 4038.85 4211.51C4050.73 4202.69 4065.87 4195.99 4084.26 4191.39C4102.66 4186.79 4124.31 4184.49 4149.22 4184.49H4190.89ZM4428 4140.52V4374.46H4331.14V4063.5H4421.67L4428 4140.52ZM4519.96 4061.2L4518.24 4151.15C4514.41 4150.77 4509.23 4150.29 4502.72 4149.72C4496.21 4149.14 4490.75 4148.85 4486.34 4148.85C4475.03 4148.85 4465.26 4150.2 4457.02 4152.88C4448.98 4155.37 4442.27 4159.2 4436.91 4164.37C4431.73 4169.36 4427.9 4175.68 4425.41 4183.34C4423.11 4191.01 4422.06 4199.92 4422.25 4210.07L4404.72 4198.58C4404.72 4177.69 4406.73 4158.72 4410.75 4141.67C4414.97 4124.43 4420.91 4109.58 4428.57 4097.12C4436.23 4084.48 4445.53 4074.8 4456.45 4068.09C4467.37 4061.2 4479.63 4057.75 4493.24 4057.75C4498.03 4057.75 4502.72 4058.04 4507.32 4058.61C4512.11 4059.19 4516.32 4060.05 4519.96 4061.2ZM4706.2 4296.29V4168.11C4706.2 4159.3 4704.96 4151.73 4702.46 4145.41C4699.97 4139.08 4696.05 4134.2 4690.68 4130.75C4685.32 4127.11 4678.13 4125.29 4669.13 4125.29C4661.85 4125.29 4655.62 4126.53 4650.44 4129.02C4645.27 4131.51 4641.34 4135.25 4638.66 4140.23C4635.98 4145.21 4634.64 4151.54 4634.64 4159.2H4537.78C4537.78 4144.83 4540.94 4131.51 4547.27 4119.25C4553.78 4106.8 4562.98 4095.97 4574.86 4086.78C4586.93 4077.58 4601.3 4070.49 4617.97 4065.51C4634.83 4060.33 4653.61 4057.75 4674.3 4057.75C4699.02 4057.75 4721.05 4061.87 4740.4 4070.11C4759.94 4078.35 4775.37 4090.7 4786.67 4107.18C4797.98 4123.47 4803.63 4143.97 4803.63 4168.69V4296C4803.63 4316.31 4804.78 4331.74 4807.08 4342.28C4809.38 4352.62 4812.64 4361.72 4816.85 4369.58V4374.46H4719.71C4715.11 4364.88 4711.66 4353.2 4709.36 4339.4C4707.25 4325.41 4706.2 4311.04 4706.2 4296.29ZM4717.98 4184.49L4718.56 4236.22H4675.74C4666.73 4236.22 4659.07 4237.47 4652.74 4239.96C4646.61 4242.45 4641.63 4245.9 4637.8 4250.31C4634.16 4254.52 4631.48 4259.31 4629.75 4264.68C4628.22 4270.04 4627.45 4275.69 4627.45 4281.63C4627.45 4287.38 4628.79 4292.56 4631.48 4297.15C4634.35 4301.56 4638.18 4305.01 4642.97 4307.5C4647.76 4309.99 4653.13 4311.24 4659.07 4311.24C4669.8 4311.24 4678.9 4309.22 4686.37 4305.2C4694.03 4300.99 4699.88 4295.91 4703.9 4289.97C4707.93 4284.03 4709.94 4278.47 4709.94 4273.3L4731.2 4312.96C4727.37 4320.62 4722.97 4328.38 4717.98 4336.24C4713.19 4344.1 4707.16 4351.38 4699.88 4358.08C4692.79 4364.6 4684.07 4369.96 4673.72 4374.18C4663.38 4378.2 4650.83 4380.21 4636.07 4380.21C4616.91 4380.21 4599.29 4376.29 4583.19 4368.43C4567.29 4360.57 4554.55 4349.65 4544.97 4335.67C4535.39 4321.49 4530.6 4305.2 4530.6 4286.81C4530.6 4270.71 4533.47 4256.34 4539.22 4243.7C4545.16 4231.05 4554.07 4220.32 4565.95 4211.51C4577.83 4202.69 4592.96 4195.99 4611.36 4191.39C4629.75 4186.79 4651.4 4184.49 4676.31 4184.49H4717.98ZM5021.19 4063.5V4130.75H4833.81V4063.5H5021.19ZM4873.18 3986.19H4970.04V4273.01C4970.04 4281.25 4970.99 4287.67 4972.91 4292.27C4974.83 4296.67 4978.08 4299.84 4982.68 4301.75C4987.47 4303.48 4993.79 4304.34 5001.65 4304.34C5007.21 4304.34 5011.8 4304.24 5015.44 4304.05C5019.09 4303.67 5022.53 4303.19 5025.79 4302.61V4371.88C5017.55 4374.56 5008.93 4376.57 4999.93 4377.91C4990.92 4379.45 4981.34 4380.21 4971.18 4380.21C4950.49 4380.21 4932.77 4376.96 4918.02 4370.44C4903.45 4363.93 4892.34 4353.68 4884.68 4339.69C4877.01 4325.7 4873.18 4307.5 4873.18 4285.08V3986.19Z" fill="#223030"/>
</svg>
